# xmcd CD database file
#
# Track frame offsets:
#	150
#	14430
#	26900
#	40675
#	54060
#	66867
#	80457
#	95160
#	110000
#	135215
#	162475
#	175872
#	189435
#	203430
#	216745
#	228515
#	243715
#	258867
#	275400
#	290617
#
# Disc length: 4013 seconds
#
# Revision: 0
# Processed by: cddbd v1.5PL3 Copyright (c) Steve Scherf et al.
# Submitted via: CDex 1.50
#
DISCID=210fab14
DTITLE=Mahalia Jackson - Amazing Grace
DYEAR=1999
DGENRE=Blues
TTITLE0=God's Gonna Separate The Wheat From The Tares
TTITLE1=Keep Me Everyday
TTITLE2=God Shall Wipe All Tears Away
TTITLE3=Oh My Lord
TTITLE4=I Want To Rest
TTITLE5=(I'm Going To( Wait Until My Change Comes
TTITLE6=He Knows My Heart
TTITLE7=I'm Going To Tell God
TTITLE8=Move On Up A Little Higher, pts 1 and 2
TTITLE9=Move On Up A Little Higher, pts 1 and 2 (Alternate Take)
TTITLE10=What Could I Do
TTITLE11=Even Me
TTITLE12=I Have A Friend
TTITLE13=Dig A Little Deeper
TTITLE14=Tired
TTITLE15=In My Home Over There
TTITLE16=If You See My Saviour
TTITLE17=There's Not A Friend Like Jesus
TTITLE18=Since The Fire Started Burning In My Soul
TTITLE19=Amazing Grace
EXTD=YEAR: 1999
EXTT0=
EXTT1=
EXTT2=
EXTT3=
EXTT4=
EXTT5=
EXTT6=
EXTT7=
EXTT8=
EXTT9=
EXTT10=
EXTT11=
EXTT12=
EXTT13=
EXTT14=
EXTT15=
EXTT16=
EXTT17=
EXTT18=
EXTT19=
PLAYORDER=
